<svg xmlns="http://www.w3.org/2000/svg" xmlns:xlink="http://www.w3.org/1999/xlink" width="547" zoomAndPan="magnify" viewBox="0 0 410.25 227.249992" height="303" preserveAspectRatio="xMidYMid meet" version="1.0"><defs><filter x="0%" y="0%" width="100%" height="100%" id="8254a9944d"><feColorMatrix values="0 0 0 0 1 0 0 0 0 1 0 0 0 0 1 0 0 0 1 0" color-interpolation-filters="sRGB"/></filter><clipPath id="037671be68"><path d="M 0.300781 0 L 409 0 L 409 60 L 0.300781 60 Z M 0.300781 0 " clip-rule="nonzero"/></clipPath><mask id="e6d467ff32"><g filter="url(#8254a9944d)"><rect x="-41.025" width="492.3" fill="#000000" y="-22.724999" height="272.69999" fill-opacity="0.49"/></g></mask><clipPath id="f9e6f35d75"><path d="M 0.300781 0 L 408.453125 0 L 408.453125 59.054688 L 0.300781 59.054688 Z M 0.300781 0 " clip-rule="nonzero"/></clipPath><clipPath id="25cc3e225a"><path d="M 0.59375 0 L 408.453125 0 L 408.453125 59 L 0.59375 59 Z M 0.59375 0 " clip-rule="nonzero"/></clipPath><clipPath id="7f5ae3710a"><rect x="0" width="409" y="0" height="60"/></clipPath><clipPath id="ccd42fc65a"><rect x="0" width="409" y="0" height="60"/></clipPath><clipPath id="0e36610250"><path d="M 30.011719 46.914062 L 409.007812 46.914062 L 409.007812 225.574219 L 30.011719 225.574219 Z M 30.011719 46.914062 " clip-rule="nonzero"/></clipPath><clipPath id="377bf72b4b"><path d="M 0.0117188 8 L 377 8 L 377 176 L 0.0117188 176 Z M 0.0117188 8 " clip-rule="nonzero"/></clipPath><mask id="3fca883fc0"><g filter="url(#8254a9944d)"><rect x="-120.255" width="590.76" fill="#000000" y="-95.994998" height="327.239988" fill-opacity="0.22"/></g></mask><clipPath id="90713292e7"><path d="M 1 0.300781 L 376 0.300781 L 376 167.75 L 1 167.75 Z M 1 0.300781 " clip-rule="nonzero"/></clipPath><clipPath id="73dfb4d1b2"><rect x="0" width="377" y="0" height="168"/></clipPath><clipPath id="e7bdb92c8b"><path d="M 0.0117188 7 L 377 7 L 377 177 L 0.0117188 177 Z M 0.0117188 7 " clip-rule="nonzero"/></clipPath><clipPath id="a5650925e3"><path d="M 372 20 L 378.753906 20 L 378.753906 87 L 372 87 Z M 372 20 " clip-rule="nonzero"/></clipPath><clipPath id="317f9b29b5"><path d="M 372 83 L 378.753906 83 L 378.753906 98 L 372 98 Z M 372 83 " clip-rule="nonzero"/></clipPath><clipPath id="f612ea310f"><path d="M 277 170 L 349 170 L 349 179.574219 L 277 179.574219 Z M 277 170 " clip-rule="nonzero"/></clipPath><clipPath id="a9628253ba"><path d="M 42 170 L 147 170 L 147 179.574219 L 42 179.574219 Z M 42 170 " clip-rule="nonzero"/></clipPath><clipPath id="48e586dc06"><path d="M 354 19 L 378.753906 19 L 378.753906 167 L 354 167 Z M 354 19 " clip-rule="nonzero"/></clipPath><clipPath id="33450101ed"><rect x="0" width="380" y="0" height="180"/></clipPath></defs><g clip-path="url(#037671be68)"><g mask="url(#e6d467ff32)"><g transform="matrix(1, 0, 0, 1, 0.000000000000000056, 0)"><g clip-path="url(#ccd42fc65a)"><g clip-path="url(#f9e6f35d75)"><g transform="matrix(1, 0, 0, 1, 0.000000000000000056, 0)"><g clip-path="url(#7f5ae3710a)"><g clip-path="url(#25cc3e225a)"><path fill="#10d3f9" d="M 188.769531 32.820312 L 251.300781 32.820312 L 246.660156 40.808594 L 196.796875 40.808594 Z M 252.285156 31.105469 L 187.046875 31.105469 L 167.722656 11.882812 L 263.433594 11.882812 Z M 89.035156 56.714844 L 102.507812 56.714844 C 99.042969 53.265625 95.5625 49.816406 92.097656 46.359375 L 78.542969 46.359375 C 82.011719 49.808594 85.476562 53.265625 88.957031 56.714844 Z M 106.554688 56.714844 L 115.210938 56.714844 L 104.800781 46.359375 L 96.054688 46.359375 L 106.464844 56.714844 Z M 119.257812 56.714844 L 127.914062 56.714844 L 117.503906 46.359375 L 108.757812 46.359375 L 119.167969 56.714844 Z M 145.101562 56.371094 L 135.039062 46.359375 L 121.484375 46.359375 L 131.894531 56.714844 L 145.449219 56.714844 Z M 383.441406 25.535156 L 296.933594 25.535156 L 293.691406 31.117188 L 254.261719 31.117188 L 265.421875 11.894531 L 403.199219 11.894531 C 403.558594 13.03125 404.628906 13.851562 405.882812 13.851562 C 407.4375 13.851562 408.703125 12.597656 408.703125 11.050781 C 408.703125 9.503906 407.4375 8.246094 405.882812 8.246094 C 404.621094 8.246094 403.558594 9.070312 403.199219 10.203125 L 266.40625 10.203125 L 268.933594 5.855469 L 388.347656 5.855469 L 388.347656 4.152344 L 267.949219 4.152344 L 264.4375 10.214844 L 166.023438 10.214844 L 158.039062 2.273438 L 9.816406 2.273438 C 9.460938 1.136719 8.386719 0.316406 7.132812 0.316406 C 5.582031 0.316406 4.316406 1.570312 4.316406 3.117188 C 4.316406 4.664062 5.582031 5.921875 7.132812 5.921875 C 8.398438 5.921875 9.460938 5.097656 9.816406 3.964844 L 157.3125 3.964844 L 163.585938 10.203125 L 33.289062 10.203125 L 33.289062 11.90625 L 165.308594 11.90625 L 184.628906 31.128906 L 0.570312 31.128906 L 0.570312 32.832031 L 186.339844 32.832031 L 196.09375 42.53125 L 247.644531 42.53125 L 253.269531 32.832031 L 292.695312 32.832031 L 278.5625 57.183594 L 158.464844 57.183594 L 141.625 40.429688 L 6.050781 40.429688 C 5.691406 39.292969 4.617188 38.472656 3.367188 38.472656 C 1.8125 38.472656 0.546875 39.726562 0.546875 41.273438 C 0.546875 42.820312 1.8125 44.078125 3.367188 44.078125 C 4.628906 44.078125 5.691406 43.253906 6.050781 42.121094 L 140.90625 42.121094 L 157.75 58.875 L 279.558594 58.875 L 294.6875 32.808594 L 387.296875 32.808594 C 387.65625 33.945312 388.730469 34.765625 389.980469 34.765625 C 391.535156 34.765625 392.800781 33.511719 392.800781 31.964844 C 392.800781 30.417969 391.535156 29.160156 389.980469 29.160156 C 388.71875 29.160156 387.65625 29.984375 387.296875 31.117188 L 295.671875 31.117188 L 297.917969 27.246094 L 383.441406 27.246094 Z M 383.441406 25.535156 " fill-opacity="1" fill-rule="nonzero"/></g></g></g></g></g></g></g></g><g clip-path="url(#0e36610250)"><g transform="matrix(1, 0, 0, 1, 30, 46)"><g clip-path="url(#33450101ed)"><g clip-path="url(#377bf72b4b)"><g mask="url(#3fca883fc0)"><g transform="matrix(1, 0, 0, 1, 0.000000000000003553, 8)"><g clip-path="url(#73dfb4d1b2)"><g clip-path="url(#90713292e7)"><path fill="#15b0f8" d="M 1.027344 6.949219 L 1.027344 149.375 L 18.898438 167.246094 L 357.804688 167.246094 L 375.675781 149.375 L 375.675781 6.949219 L 369.222656 0.496094 L 258.078125 0.496094 L 247.203125 11.359375 L 129.488281 11.359375 L 118.625 0.496094 L 7.476562 0.496094 Z M 1.027344 6.949219 " fill-opacity="1" fill-rule="nonzero"/></g></g></g></g></g><g clip-path="url(#e7bdb92c8b)"><path fill="#15b0f8" d="M 18.507812 176.199219 L 358.195312 176.199219 L 376.621094 157.773438 L 376.621094 14.558594 L 369.589844 7.527344 L 257.6875 7.527344 L 246.8125 18.398438 L 129.878906 18.398438 L 119.015625 7.527344 L 7.085938 7.527344 L 0.0585938 14.558594 L 0.0585938 157.773438 Z M 357.414062 174.300781 L 19.289062 174.300781 L 1.964844 156.984375 L 1.964844 15.339844 L 7.859375 9.441406 L 118.226562 9.441406 L 129.097656 20.304688 L 247.601562 20.304688 L 258.46875 9.441406 L 368.832031 9.441406 L 374.730469 15.339844 L 374.730469 156.984375 Z M 357.414062 174.300781 " fill-opacity="1" fill-rule="nonzero"/></g><g clip-path="url(#a5650925e3)"><path fill="#15b0f8" d="M 372.214844 20.101562 L 378.761719 20.101562 L 378.761719 80.386719 L 372.433594 86.710938 Z M 372.214844 20.101562 " fill-opacity="1" fill-rule="nonzero"/></g><g clip-path="url(#317f9b29b5)"><path fill="#15b0f8" d="M 372.410156 90.039062 L 372.433594 97.179688 L 378.761719 90.851562 L 378.761719 83.691406 Z M 372.410156 90.039062 " fill-opacity="1" fill-rule="nonzero"/></g><g clip-path="url(#f612ea310f)"><path fill="#15b0f8" d="M 348.210938 170.878906 L 339.347656 179.746094 L 277.882812 179.746094 L 286.875 170.753906 Z M 348.210938 170.878906 " fill-opacity="1" fill-rule="nonzero"/></g><g clip-path="url(#a9628253ba)"><path fill="#15b0f8" d="M 48.234375 174.042969 L 82.171875 174.113281 L 85.53125 170.753906 L 146.859375 170.878906 L 138.003906 179.746094 L 42.53125 179.746094 Z M 48.234375 174.042969 " fill-opacity="1" fill-rule="nonzero"/></g><path fill="#15b0f8" d="M 187.617188 1.035156 L 253.953125 1.035156 L 242.191406 12.808594 L 134.511719 12.808594 L 122.75 1.035156 Z M 187.617188 1.035156 " fill-opacity="1" fill-rule="nonzero"/><g clip-path="url(#48e586dc06)"><path fill="#15b0f8" d="M 354.53125 166.710938 L 368.128906 153.113281 L 368.128906 20.335938 L 378.761719 20.335938 L 378.761719 19.867188 L 367.652344 19.867188 L 367.652344 152.917969 L 354.195312 166.375 Z M 354.53125 166.710938 " fill-opacity="1" fill-rule="nonzero"/></g></g></g></g></svg>