<svg xmlns="http://www.w3.org/2000/svg" xmlns:xlink="http://www.w3.org/1999/xlink" width="547" zoomAndPan="magnify" viewBox="0 0 410.25 227.249992" height="303" preserveAspectRatio="xMidYMid meet" version="1.0"><defs><filter x="0%" y="0%" width="100%" height="100%" id="b4696ab166"><feColorMatrix values="0 0 0 0 1 0 0 0 0 1 0 0 0 0 1 0 0 0 1 0" color-interpolation-filters="sRGB"/></filter><mask id="cb1ecdf499"><g filter="url(#b4696ab166)"><rect x="-41.025" width="492.3" fill="#000000" y="-22.724999" height="272.69999" fill-opacity="0.22"/></g></mask><clipPath id="8b1b52d301"><path d="M 1 0.300781 L 376.730469 0.300781 L 376.730469 167.75 L 1 167.75 Z M 1 0.300781 " clip-rule="nonzero"/></clipPath><clipPath id="a411264f5c"><rect x="0" width="377" y="0" height="168"/></clipPath><clipPath id="0745624aec"><path d="M 0.300781 66 L 7 66 L 7 133 L 0.300781 133 Z M 0.300781 66 " clip-rule="nonzero"/></clipPath><clipPath id="43fe8e6c40"><path d="M 0.300781 129 L 7 129 L 7 144 L 0.300781 144 Z M 0.300781 129 " clip-rule="nonzero"/></clipPath><clipPath id="4c7903501e"><path d="M 30 216 L 102 216 L 102 225.574219 L 30 225.574219 Z M 30 216 " clip-rule="nonzero"/></clipPath><clipPath id="2c870ab56e"><path d="M 232 216 L 337 216 L 337 225.574219 L 232 225.574219 Z M 232 216 " clip-rule="nonzero"/></clipPath><clipPath id="4d797bf8a3"><path d="M 0.300781 65 L 25 65 L 25 213 L 0.300781 213 Z M 0.300781 65 " clip-rule="nonzero"/></clipPath><clipPath id="eb530b4bb5"><path d="M 0.300781 0 L 409.203125 0 L 409.203125 60 L 0.300781 60 Z M 0.300781 0 " clip-rule="nonzero"/></clipPath><mask id="23cf198163"><g filter="url(#b4696ab166)"><rect x="-41.025" width="492.3" fill="#000000" y="-22.724999" height="272.69999" fill-opacity="0.49"/></g></mask><clipPath id="2e99dcb9e3"><path d="M 0.300781 0 L 408.453125 0 L 408.453125 59 L 0.300781 59 Z M 0.300781 0 " clip-rule="nonzero"/></clipPath><clipPath id="5478b347e0"><rect x="0" width="410" y="0" height="60"/></clipPath></defs><g mask="url(#cb1ecdf499)"><g transform="matrix(1, 0, 0, 1, 2, 54)"><g clip-path="url(#a411264f5c)"><g clip-path="url(#8b1b52d301)"><path fill="#15b0f8" d="M 376.027344 6.949219 L 376.027344 149.375 L 358.15625 167.246094 L 19.25 167.246094 L 1.378906 149.375 L 1.378906 6.949219 L 7.832031 0.496094 L 118.976562 0.496094 L 129.847656 11.359375 L 247.566406 11.359375 L 258.429688 0.496094 L 369.574219 0.496094 Z M 376.027344 6.949219 " fill-opacity="1" fill-rule="nonzero"/></g></g></g></g><path fill="#15b0f8" d="M 360.546875 222.199219 L 20.859375 222.199219 L 2.433594 203.773438 L 2.433594 60.558594 L 9.464844 53.527344 L 121.367188 53.527344 L 132.238281 64.398438 L 249.175781 64.398438 L 260.039062 53.527344 L 371.964844 53.527344 L 378.996094 60.558594 L 378.996094 203.773438 Z M 21.640625 220.300781 L 359.765625 220.300781 L 377.089844 202.984375 L 377.089844 61.339844 L 371.195312 55.441406 L 260.828125 55.441406 L 249.957031 66.304688 L 131.449219 66.304688 L 120.585938 55.441406 L 10.21875 55.441406 L 4.324219 61.339844 L 4.324219 202.984375 Z M 21.640625 220.300781 " fill-opacity="1" fill-rule="nonzero"/><g clip-path="url(#0745624aec)"><path fill="#15b0f8" d="M 6.839844 66.101562 L 0.292969 66.101562 L 0.292969 126.386719 L 6.621094 132.710938 Z M 6.839844 66.101562 " fill-opacity="1" fill-rule="nonzero"/></g><g clip-path="url(#43fe8e6c40)"><path fill="#15b0f8" d="M 6.644531 136.039062 L 6.621094 143.179688 L 0.292969 136.851562 L 0.292969 129.691406 Z M 6.644531 136.039062 " fill-opacity="1" fill-rule="nonzero"/></g><g clip-path="url(#4c7903501e)"><path fill="#15b0f8" d="M 30.839844 216.878906 L 39.707031 225.746094 L 101.167969 225.746094 L 92.179688 216.753906 Z M 30.839844 216.878906 " fill-opacity="1" fill-rule="nonzero"/></g><g clip-path="url(#2c870ab56e)"><path fill="#15b0f8" d="M 330.820312 220.042969 L 296.882812 220.113281 L 293.523438 216.753906 L 232.195312 216.878906 L 241.050781 225.746094 L 336.523438 225.746094 Z M 330.820312 220.042969 " fill-opacity="1" fill-rule="nonzero"/></g><path fill="#15b0f8" d="M 191.4375 47.035156 L 125.101562 47.035156 L 136.863281 58.808594 L 244.542969 58.808594 L 256.304688 47.035156 Z M 191.4375 47.035156 " fill-opacity="1" fill-rule="nonzero"/><g clip-path="url(#4d797bf8a3)"><path fill="#15b0f8" d="M 24.523438 212.710938 L 10.921875 199.113281 L 10.921875 66.335938 L 0.292969 66.335938 L 0.292969 65.867188 L 11.398438 65.867188 L 11.398438 198.917969 L 24.859375 212.375 Z M 24.523438 212.710938 " fill-opacity="1" fill-rule="nonzero"/></g><g clip-path="url(#eb530b4bb5)"><g mask="url(#23cf198163)"><g transform="matrix(1, 0, 0, 1, 0.000000000000000056, 0)"><g clip-path="url(#5478b347e0)"><g clip-path="url(#2e99dcb9e3)"><path fill="#10d3f9" d="M 220.277344 32.820312 L 157.746094 32.820312 L 162.386719 40.808594 L 212.25 40.808594 Z M 156.761719 31.105469 L 222 31.105469 L 241.324219 11.882812 L 145.613281 11.882812 Z M 320.011719 56.714844 L 306.539062 56.714844 C 310.003906 53.265625 313.484375 49.816406 316.949219 46.359375 L 330.503906 46.359375 C 327.035156 49.808594 323.570312 53.265625 320.089844 56.714844 Z M 302.492188 56.714844 L 293.835938 56.714844 L 304.246094 46.359375 L 312.992188 46.359375 L 302.582031 56.714844 Z M 289.789062 56.714844 L 281.132812 56.714844 L 291.542969 46.359375 L 300.289062 46.359375 L 289.878906 56.714844 Z M 263.945312 56.371094 L 274.007812 46.359375 L 287.5625 46.359375 L 277.152344 56.714844 L 263.597656 56.714844 Z M 25.605469 25.535156 L 112.113281 25.535156 L 115.355469 31.117188 L 154.785156 31.117188 L 143.625 11.894531 L 5.847656 11.894531 C 5.488281 13.03125 4.417969 13.851562 3.164062 13.851562 C 1.609375 13.851562 0.347656 12.597656 0.347656 11.050781 C 0.347656 9.503906 1.609375 8.246094 3.164062 8.246094 C 4.425781 8.246094 5.488281 9.070312 5.847656 10.203125 L 142.640625 10.203125 L 140.113281 5.855469 L 20.699219 5.855469 L 20.699219 4.152344 L 141.097656 4.152344 L 144.609375 10.214844 L 243.023438 10.214844 L 251.007812 2.273438 L 399.230469 2.273438 C 399.585938 1.136719 400.660156 0.316406 401.914062 0.316406 C 403.464844 0.316406 404.730469 1.570312 404.730469 3.117188 C 404.730469 4.664062 403.464844 5.921875 401.914062 5.921875 C 400.648438 5.921875 399.585938 5.097656 399.230469 3.964844 L 251.734375 3.964844 L 245.460938 10.203125 L 375.757812 10.203125 L 375.757812 11.90625 L 243.738281 11.90625 L 224.417969 31.128906 L 408.476562 31.128906 L 408.476562 32.832031 L 222.707031 32.832031 L 212.953125 42.53125 L 161.402344 42.53125 L 155.78125 32.832031 L 116.351562 32.832031 L 130.484375 57.183594 L 250.582031 57.183594 L 267.421875 40.429688 L 402.996094 40.429688 C 403.355469 39.292969 404.429688 38.472656 405.679688 38.472656 C 407.234375 38.472656 408.5 39.726562 408.5 41.273438 C 408.5 42.820312 407.234375 44.078125 405.679688 44.078125 C 404.417969 44.078125 403.355469 43.253906 402.996094 42.121094 L 268.140625 42.121094 L 251.296875 58.875 L 129.488281 58.875 L 114.359375 32.808594 L 21.75 32.808594 C 21.390625 33.945312 20.316406 34.765625 19.066406 34.765625 C 17.511719 34.765625 16.246094 33.511719 16.246094 31.964844 C 16.246094 30.417969 17.511719 29.160156 19.066406 29.160156 C 20.328125 29.160156 21.390625 29.984375 21.75 31.117188 L 113.375 31.117188 L 111.128906 27.246094 L 25.605469 27.246094 Z M 25.605469 25.535156 " fill-opacity="1" fill-rule="nonzero"/></g></g></g></g></g></svg>