<svg xmlns="http://www.w3.org/2000/svg" xmlns:xlink="http://www.w3.org/1999/xlink" width="1366" zoomAndPan="magnify" viewBox="0 0 1024.5 576" height="768" preserveAspectRatio="xMidYMid meet" version="1.0"><defs><clipPath id="facb699c47"><path d="M 829 228 L 833 228 L 833 304.253906 L 829 304.253906 Z M 829 228 " clip-rule="nonzero"/></clipPath><clipPath id="1d6673de14"><path d="M 824.273438 226.289062 L 838.515625 226.289062 L 838.515625 239 L 824.273438 239 Z M 824.273438 226.289062 " clip-rule="nonzero"/></clipPath></defs><g clip-path="url(#facb699c47)"><path fill="#d8f7ff" d="M 832.273438 303.242188 C 832.273438 303.796875 831.828125 304.246094 831.273438 304.25 C 830.71875 304.253906 830.269531 303.804688 830.265625 303.253906 L 829.855469 229.066406 C 829.855469 228.511719 830.300781 228.058594 830.855469 228.054688 C 831.410156 228.054688 831.859375 228.5 831.863281 229.054688 Z M 832.273438 303.242188 " fill-opacity="1" fill-rule="evenodd"/></g><g clip-path="url(#1d6673de14)"><path fill="#d8f7ff" d="M 826.316406 237.617188 C 826.027344 238.089844 825.410156 238.242188 824.9375 237.953125 C 824.464844 237.667969 824.3125 237.050781 824.601562 236.574219 L 830.710938 226.503906 L 837.894531 236.625 C 838.21875 237.078125 838.109375 237.703125 837.660156 238.023438 C 837.207031 238.34375 836.578125 238.238281 836.257812 237.789062 L 830.84375 230.15625 Z M 826.316406 237.617188 " fill-opacity="1" fill-rule="evenodd"/></g></svg>